<?xml version="1.0" encoding="utf-8"?>
<!-- Generator: Adobe Illustrator 24.2.3, SVG Export Plug-In . SVG Version: 6.00 Build 0)  -->
<svg version="1.1" id="Layer_1" xmlns="http://www.w3.org/2000/svg" xmlns:xlink="http://www.w3.org/1999/xlink" x="0px" y="0px"
	 viewBox="0 0 248.02 280.34" style="enable-background:new 0 0 248.02 280.34;" xml:space="preserve">
<style type="text/css">
	.st0{fill:none;stroke:#8B5A2B;stroke-width:0.75;stroke-linejoin:round;stroke-miterlimit:10;}
	.st1{fill:#E2D2C3;}
	.st2{fill:none;stroke:#8B5A2B;stroke-width:0.75;stroke-linecap:round;stroke-linejoin:round;stroke-miterlimit:10;}
	.st3{fill:none;stroke:#8B5A2B;stroke-width:1.49;stroke-linejoin:round;stroke-miterlimit:10;}
	.st4{fill:none;stroke:#CD6600;stroke-width:0.75;stroke-linejoin:round;stroke-miterlimit:10;}
	.st5{fill:#FFE5CC;}
	.st6{fill:none;stroke:#CD6600;stroke-width:0.75;stroke-linecap:round;stroke-linejoin:round;stroke-miterlimit:10;}
	.st7{fill:none;stroke:#CD6600;stroke-width:1.49;stroke-linejoin:round;stroke-miterlimit:10;}
	.st8{fill:#8B5A2B;}
	.st9{fill:none;stroke:#8B5A2B;stroke-width:0.71;stroke-linecap:round;stroke-linejoin:round;stroke-miterlimit:10;}
	.st10{fill:#CD6600;}
	.st11{fill:none;stroke:#CD6600;stroke-width:0.71;stroke-linecap:round;stroke-linejoin:round;stroke-miterlimit:10;}
	.st12{fill:none;stroke:#000000;stroke-width:0.64;stroke-linecap:round;stroke-linejoin:round;stroke-miterlimit:10;}
	.st13{fill:none;stroke:#000000;stroke-width:0.75;stroke-linecap:square;stroke-linejoin:round;stroke-miterlimit:10;}
	.st14{font-family:'Helvetica';}
	.st15{font-size:8px;}
	.st16{font-size:6px;}
	.st17{fill:none;stroke:#000000;stroke-width:0.75;stroke-linejoin:round;stroke-miterlimit:10;}
	.st18{font-family:'Helvetica-Bold';}
	.st19{font-family:'Symbol';}
</style>
<line class="st0" x1="70.37" y1="213.24" x2="70.37" y2="205.24"/>
<line class="st0" x1="70.37" y1="225.54" x2="70.37" y2="236.42"/>
<rect x="51.9" y="213.24" class="st1" width="36.93" height="12.3"/>
<rect x="51.9" y="213.24" class="st2" width="36.93" height="12.3"/>
<line class="st3" x1="51.9" y1="221.22" x2="88.83" y2="221.22"/>
<line class="st4" x1="119.61" y1="136.53" x2="119.61" y2="132.21"/>
<line class="st4" x1="119.61" y1="159.07" x2="119.61" y2="164.87"/>
<rect x="101.14" y="136.53" class="st5" width="36.93" height="22.54"/>
<rect x="101.14" y="136.53" class="st6" width="36.93" height="22.54"/>
<line class="st7" x1="101.14" y1="141.59" x2="138.07" y2="141.59"/>
<line class="st0" x1="168.85" y1="85.1" x2="168.85" y2="79.91"/>
<line class="st0" x1="168.85" y1="96.09" x2="168.85" y2="100.13"/>
<rect x="150.39" y="85.1" class="st1" width="36.93" height="10.99"/>
<rect x="150.39" y="85.1" class="st2" width="36.93" height="10.99"/>
<line class="st3" x1="150.39" y1="92.88" x2="187.32" y2="92.88"/>
<line class="st4" x1="218.09" y1="160.34" x2="218.09" y2="157.94"/>
<line class="st4" x1="218.09" y1="176.74" x2="218.09" y2="185.27"/>
<rect x="199.63" y="160.34" class="st5" width="36.93" height="16.4"/>
<rect x="199.63" y="160.34" class="st6" width="36.93" height="16.4"/>
<line class="st7" x1="199.63" y1="164.77" x2="236.56" y2="164.77"/>
<path class="st8" d="M169.73,100.09c0-0.78,0.64-1.42,1.43-1.42c0.78,0,1.42,0.64,1.42,1.42c0,0.79-0.64,1.43-1.42,1.43
	C170.37,101.52,169.73,100.88,169.73,100.09"/>
<path class="st9" d="M169.73,100.09c0-0.78,0.64-1.42,1.43-1.42c0.78,0,1.42,0.64,1.42,1.42c0,0.79-0.64,1.43-1.42,1.43
	C170.37,101.52,169.73,100.88,169.73,100.09"/>
<path class="st8" d="M172.51,95.54c0-0.78,0.64-1.42,1.43-1.42c0.78,0,1.42,0.64,1.42,1.42c0,0.79-0.64,1.43-1.42,1.43
	C173.15,96.97,172.51,96.33,172.51,95.54"/>
<path class="st9" d="M172.51,95.54c0-0.78,0.64-1.42,1.43-1.42c0.78,0,1.42,0.64,1.42,1.42c0,0.79-0.64,1.43-1.42,1.43
	C173.15,96.97,172.51,96.33,172.51,95.54"/>
<path class="st8" d="M165.46,91.7c0-0.78,0.64-1.42,1.42-1.42s1.42,0.64,1.42,1.42s-0.64,1.42-1.42,1.42S165.46,92.48,165.46,91.7"
	/>
<path class="st9" d="M165.46,91.7c0-0.78,0.64-1.42,1.42-1.42s1.42,0.64,1.42,1.42s-0.64,1.42-1.42,1.42S165.46,92.48,165.46,91.7"
	/>
<path class="st8" d="M161.8,86.73c0-0.78,0.64-1.42,1.42-1.42c0.78,0,1.42,0.64,1.42,1.42s-0.64,1.42-1.42,1.42
	C162.44,88.15,161.8,87.51,161.8,86.73"/>
<path class="st9" d="M161.8,86.73c0-0.78,0.64-1.42,1.42-1.42c0.78,0,1.42,0.64,1.42,1.42s-0.64,1.42-1.42,1.42
	C162.44,88.15,161.8,87.51,161.8,86.73"/>
<path class="st8" d="M163.97,97.78c0-0.78,0.64-1.42,1.42-1.42s1.42,0.64,1.42,1.42s-0.64,1.42-1.42,1.42S163.97,98.56,163.97,97.78
	"/>
<path class="st9" d="M163.97,97.78c0-0.78,0.64-1.42,1.42-1.42s1.42,0.64,1.42,1.42s-0.64,1.42-1.42,1.42S163.97,98.56,163.97,97.78
	"/>
<path class="st8" d="M169.06,94.06c0-0.78,0.63-1.42,1.42-1.42c0.78,0,1.42,0.64,1.42,1.42c0,0.79-0.64,1.42-1.42,1.42
	C169.69,95.48,169.06,94.85,169.06,94.06"/>
<path class="st9" d="M169.06,94.06c0-0.78,0.63-1.42,1.42-1.42c0.78,0,1.42,0.64,1.42,1.42c0,0.79-0.64,1.42-1.42,1.42
	C169.69,95.48,169.06,94.85,169.06,94.06"/>
<path class="st8" d="M170.7,80.08c0-0.78,0.64-1.42,1.42-1.42s1.42,0.64,1.42,1.42s-0.64,1.42-1.42,1.42S170.7,80.86,170.7,80.08"/>
<path class="st9" d="M170.7,80.08c0-0.78,0.64-1.42,1.42-1.42s1.42,0.64,1.42,1.42s-0.64,1.42-1.42,1.42S170.7,80.86,170.7,80.08"/>
<path class="st8" d="M165.19,79.87c0-0.78,0.64-1.42,1.42-1.42c0.78,0,1.42,0.64,1.42,1.42s-0.64,1.42-1.42,1.42
	C165.83,81.29,165.19,80.65,165.19,79.87"/>
<path class="st9" d="M165.19,79.87c0-0.78,0.64-1.42,1.42-1.42c0.78,0,1.42,0.64,1.42,1.42s-0.64,1.42-1.42,1.42
	C165.83,81.29,165.19,80.65,165.19,79.87"/>
<path class="st8" d="M66.68,236.42c0-0.78,0.64-1.42,1.43-1.42c0.78,0,1.42,0.64,1.42,1.42c0,0.78-0.64,1.42-1.42,1.42
	C67.32,237.84,66.68,237.2,66.68,236.42"/>
<path class="st9" d="M66.68,236.42c0-0.78,0.64-1.42,1.43-1.42c0.78,0,1.42,0.64,1.42,1.42c0,0.78-0.64,1.42-1.42,1.42
	C67.32,237.84,66.68,237.2,66.68,236.42"/>
<path class="st8" d="M66.61,225.93c0-0.78,0.64-1.42,1.42-1.42c0.78,0,1.42,0.64,1.42,1.42c0,0.79-0.64,1.43-1.42,1.43
	C67.25,227.36,66.61,226.72,66.61,225.93"/>
<path class="st9" d="M66.61,225.93c0-0.78,0.64-1.42,1.42-1.42c0.78,0,1.42,0.64,1.42,1.42c0,0.79-0.64,1.43-1.42,1.43
	C67.25,227.36,66.61,226.72,66.61,225.93"/>
<path class="st8" d="M75.85,224.65c0-0.79,0.64-1.43,1.43-1.43c0.78,0,1.42,0.64,1.42,1.43c0,0.78-0.64,1.42-1.42,1.42
	C76.49,226.07,75.85,225.43,75.85,224.65"/>
<path class="st9" d="M75.85,224.65c0-0.79,0.64-1.43,1.43-1.43c0.78,0,1.42,0.64,1.42,1.43c0,0.78-0.64,1.42-1.42,1.42
	C76.49,226.07,75.85,225.43,75.85,224.65"/>
<path class="st8" d="M68.53,217.92c0-0.79,0.64-1.43,1.42-1.43c0.78,0,1.42,0.64,1.42,1.43c0,0.78-0.64,1.42-1.42,1.42
	C69.17,219.34,68.53,218.7,68.53,217.92"/>
<path class="st9" d="M68.53,217.92c0-0.79,0.64-1.43,1.42-1.43c0.78,0,1.42,0.64,1.42,1.43c0,0.78-0.64,1.42-1.42,1.42
	C69.17,219.34,68.53,218.7,68.53,217.92"/>
<path class="st8" d="M72.58,205.16c0-0.78,0.64-1.42,1.42-1.42c0.79,0,1.43,0.64,1.43,1.42s-0.64,1.42-1.43,1.42
	C73.22,206.58,72.58,205.94,72.58,205.16"/>
<path class="st9" d="M72.58,205.16c0-0.78,0.64-1.42,1.42-1.42c0.79,0,1.43,0.64,1.43,1.42s-0.64,1.42-1.43,1.42
	C73.22,206.58,72.58,205.94,72.58,205.16"/>
<path class="st8" d="M62.31,211.65c0-0.79,0.64-1.43,1.42-1.43c0.79,0,1.43,0.64,1.43,1.43c0,0.78-0.64,1.42-1.43,1.42
	C62.95,213.07,62.31,212.43,62.31,211.65"/>
<path class="st9" d="M62.31,211.65c0-0.79,0.64-1.43,1.42-1.43c0.79,0,1.43,0.64,1.43,1.43c0,0.78-0.64,1.42-1.43,1.42
	C62.95,213.07,62.31,212.43,62.31,211.65"/>
<path class="st10" d="M220.9,166.54c0-0.78,0.64-1.42,1.42-1.42s1.42,0.64,1.42,1.42s-0.64,1.42-1.42,1.42
	S220.9,167.32,220.9,166.54"/>
<path class="st11" d="M220.9,166.54c0-0.78,0.64-1.42,1.42-1.42s1.42,0.64,1.42,1.42s-0.64,1.42-1.42,1.42
	S220.9,167.32,220.9,166.54"/>
<path class="st10" d="M211.42,162.92c0-0.78,0.64-1.42,1.42-1.42s1.42,0.64,1.42,1.42s-0.64,1.42-1.42,1.42
	S211.42,163.7,211.42,162.92"/>
<path class="st11" d="M211.42,162.92c0-0.78,0.64-1.42,1.42-1.42s1.42,0.64,1.42,1.42s-0.64,1.42-1.42,1.42
	S211.42,163.7,211.42,162.92"/>
<path class="st10" d="M211.46,157.99c0-0.78,0.64-1.42,1.42-1.42s1.42,0.64,1.42,1.42s-0.64,1.42-1.42,1.42
	S211.46,158.77,211.46,157.99"/>
<path class="st11" d="M211.46,157.99c0-0.78,0.64-1.42,1.42-1.42s1.42,0.64,1.42,1.42s-0.64,1.42-1.42,1.42
	S211.46,158.77,211.46,157.99"/>
<path class="st10" d="M213.95,185.3c0-0.78,0.64-1.42,1.42-1.42c0.79,0,1.42,0.64,1.42,1.42s-0.63,1.42-1.42,1.42
	C214.59,186.72,213.95,186.08,213.95,185.3"/>
<path class="st11" d="M213.95,185.3c0-0.78,0.64-1.42,1.42-1.42c0.79,0,1.42,0.64,1.42,1.42s-0.63,1.42-1.42,1.42
	C214.59,186.72,213.95,186.08,213.95,185.3"/>
<path class="st10" d="M219.49,180.17c0-0.78,0.64-1.42,1.42-1.42s1.42,0.64,1.42,1.42s-0.64,1.42-1.42,1.42
	S219.49,180.95,219.49,180.17"/>
<path class="st11" d="M219.49,180.17c0-0.78,0.64-1.42,1.42-1.42s1.42,0.64,1.42,1.42s-0.64,1.42-1.42,1.42
	S219.49,180.95,219.49,180.17"/>
<path class="st10" d="M223.11,159.54c0-0.78,0.64-1.42,1.42-1.42c0.79,0,1.43,0.64,1.43,1.42s-0.64,1.42-1.43,1.42
	C223.75,160.96,223.11,160.32,223.11,159.54"/>
<path class="st11" d="M223.11,159.54c0-0.78,0.64-1.42,1.42-1.42c0.79,0,1.43,0.64,1.43,1.42s-0.64,1.42-1.43,1.42
	C223.75,160.96,223.11,160.32,223.11,159.54"/>
<path class="st10" d="M125.55,145.98c0-0.79,0.64-1.43,1.42-1.43s1.42,0.64,1.42,1.43c0,0.78-0.64,1.42-1.42,1.42
	S125.55,146.76,125.55,145.98"/>
<path class="st11" d="M125.55,145.98c0-0.79,0.64-1.43,1.42-1.43s1.42,0.64,1.42,1.43c0,0.78-0.64,1.42-1.42,1.42
	S125.55,146.76,125.55,145.98"/>
<path class="st10" d="M113.73,132.28c0-0.78,0.64-1.42,1.42-1.42c0.79,0,1.42,0.64,1.42,1.42s-0.63,1.42-1.42,1.42
	C114.37,133.7,113.73,133.06,113.73,132.28"/>
<path class="st11" d="M113.73,132.28c0-0.78,0.64-1.42,1.42-1.42c0.79,0,1.42,0.64,1.42,1.42s-0.63,1.42-1.42,1.42
	C114.37,133.7,113.73,133.06,113.73,132.28"/>
<path class="st10" d="M121.86,137.23c0-0.79,0.64-1.43,1.42-1.43c0.78,0,1.42,0.64,1.42,1.43c0,0.78-0.64,1.42-1.42,1.42
	C122.5,138.65,121.86,138.01,121.86,137.23"/>
<path class="st11" d="M121.86,137.23c0-0.79,0.64-1.43,1.42-1.43c0.78,0,1.42,0.64,1.42,1.43c0,0.78-0.64,1.42-1.42,1.42
	C122.5,138.65,121.86,138.01,121.86,137.23"/>
<path class="st10" d="M125.39,164.81c0-0.78,0.64-1.42,1.43-1.42c0.78,0,1.42,0.64,1.42,1.42s-0.64,1.42-1.42,1.42
	C126.03,166.23,125.39,165.59,125.39,164.81"/>
<path class="st11" d="M125.39,164.81c0-0.78,0.64-1.42,1.43-1.42c0.78,0,1.42,0.64,1.42,1.42s-0.64,1.42-1.42,1.42
	C126.03,166.23,125.39,165.59,125.39,164.81"/>
<path class="st10" d="M113.07,163.39c0-0.78,0.64-1.42,1.42-1.42c0.78,0,1.42,0.64,1.42,1.42c0,0.78-0.64,1.42-1.42,1.42
	C113.71,164.81,113.07,164.17,113.07,163.39"/>
<path class="st11" d="M113.07,163.39c0-0.78,0.64-1.42,1.42-1.42c0.78,0,1.42,0.64,1.42,1.42c0,0.78-0.64,1.42-1.42,1.42
	C113.71,164.81,113.07,164.17,113.07,163.39"/>
<path class="st10" d="M113.13,136.24c0-0.78,0.64-1.42,1.42-1.42s1.42,0.64,1.42,1.42s-0.64,1.42-1.42,1.42
	S113.13,137.02,113.13,136.24"/>
<path class="st11" d="M113.13,136.24c0-0.78,0.64-1.42,1.42-1.42s1.42,0.64,1.42,1.42s-0.64,1.42-1.42,1.42
	S113.13,137.02,113.13,136.24"/>
<line class="st12" x1="70.37" y1="20.44" x2="70.37" y2="15.74"/>
<line class="st12" x1="70.37" y1="15.74" x2="119.61" y2="15.74"/>
<line class="st12" x1="119.61" y1="15.74" x2="119.61" y2="20.44"/>
<line class="st12" x1="70.37" y1="39.22" x2="70.37" y2="34.52"/>
<line class="st12" x1="70.37" y1="34.52" x2="168.85" y2="34.52"/>
<line class="st12" x1="168.85" y1="34.52" x2="168.85" y2="39.22"/>
<line class="st12" x1="119.61" y1="58" x2="119.61" y2="53.31"/>
<line class="st12" x1="119.61" y1="53.31" x2="218.09" y2="53.31"/>
<line class="st12" x1="218.09" y1="53.31" x2="218.09" y2="58"/>
<line class="st13" x1="40.82" y1="256.05" x2="40.82" y2="67.59"/>
<text transform="matrix(1 0 0 1 16.6007 247.942)" class="st14 st15">10</text>
<text transform="matrix(1 0 0 1 25.5006 243.9723)" class="st14 st16">−14</text>
<text transform="matrix(1 0 0 1 16.6007 203.8619)" class="st14 st15">10</text>
<text transform="matrix(1 0 0 1 25.5006 199.8922)" class="st14 st16">−12</text>
<text transform="matrix(1 0 0 1 16.6007 159.7828)" class="st14 st15">10</text>
<text transform="matrix(1 0 0 1 25.5006 155.8024)" class="st14 st16">−10</text>
<text transform="matrix(1 0 0 1 19.9405 115.6925)" class="st14 st15">10</text>
<text transform="matrix(1 0 0 1 28.8307 111.7223)" class="st14 st16">−8</text>
<text transform="matrix(1 0 0 1 19.9405 71.6124)" class="st14 st15">10</text>
<text transform="matrix(1 0 0 1 28.8307 67.6324)" class="st14 st16">−6</text>
<line class="st17" x1="38.66" y1="243.92" x2="40.82" y2="243.92"/>
<line class="st17" x1="38.66" y1="199.84" x2="40.82" y2="199.84"/>
<line class="st17" x1="38.66" y1="155.76" x2="40.82" y2="155.76"/>
<line class="st17" x1="38.66" y1="111.67" x2="40.82" y2="111.67"/>
<line class="st17" x1="38.66" y1="67.59" x2="40.82" y2="67.59"/>
<line class="st13" x1="40.82" y1="256.05" x2="247.64" y2="256.05"/>
<line class="st17" x1="70.37" y1="258.21" x2="70.37" y2="256.05"/>
<line class="st17" x1="119.61" y1="258.21" x2="119.61" y2="256.05"/>
<line class="st17" x1="168.85" y1="258.21" x2="168.85" y2="256.05"/>
<line class="st17" x1="218.09" y1="258.21" x2="218.09" y2="256.05"/>
<text transform="matrix(1 0 0 1 51.0504 266.942)"><tspan x="0" y="0" class="st14 st15">cross−sp</tspan><tspan x="32.23" y="0" class="st14 st15">p</tspan><tspan x="36.4" y="0" class="st14 st15">.</tspan></text>
<g>
	<text transform="matrix(1 0 0 1 60.8107 275.5826)" class="st8 st18 st15"> LDM</text>
</g>
<text transform="matrix(1 0 0 1 100.3004 266.942)"><tspan x="0" y="0" class="st14 st15">cross−sp</tspan><tspan x="32.23" y="0" class="st14 st15">p</tspan><tspan x="36.4" y="0" class="st14 st15">.</tspan></text>
<g>
	<text transform="matrix(1 0 0 1 111.3805 275.5826)" class="st10 st18 st15"> SIM</text>
</g>
<text transform="matrix(1 0 0 1 151.1007 266.942)"><tspan x="0" y="0" class="st14 st15">within−s</tspan><tspan x="29.12" y="0" class="st14 st15">p</tspan><tspan x="33.29" y="0" class="st14 st15">.</tspan></text>
<g>
	<text transform="matrix(1 0 0 1 159.3009 275.5826)" class="st8 st18 st15"> LDM</text>
</g>
<text transform="matrix(1 0 0 1 198.7804 266.942)"><tspan x="0" y="0" class="st14 st15">cross−sp</tspan><tspan x="32.23" y="0" class="st14 st15">p</tspan><tspan x="36.4" y="0" class="st14 st15">.</tspan></text>
<text transform="matrix(1 0 0 1 192.0206 275.5826)"><tspan x="0" y="0" class="st14 st15"> </tspan><tspan x="2.22" y="0" class="st10 st18 st15">SIM</tspan><tspan x="16.45" y="0" class="st14 st15"> t</tspan><tspan x="20.89" y="0" class="st14 st15">r</tspan><tspan x="23.67" y="0" class="st14 st15">uncated</tspan></text>
<text transform="matrix(1 0 0 1 82.4221 12.9702)" class="st14 st15">[A] ****</text>
<text transform="matrix(1 0 0 1 107.0421 31.7998)" class="st14 st15">[B] ****</text>
<text transform="matrix(1 0 0 1 160.7313 50.6299)" class="st14 st15">[C] *</text>
<g>
	<text transform="matrix(0 -1 1 0 9.2506 225.1382)" class="st14 st15">Conjugation estimate (ml </text>
	<text transform="matrix(0 -1 1 0 9.2509 134.4409)" class="st14 st15">cfu</text>
	<text transform="matrix(0 -1 1 0 5.2804 123.769)" class="st19 st16">−</text>
	<text transform="matrix(0 -1 1 0 5.2804 120.48)" class="st14 st16">1</text>
	<text transform="matrix(0 -1 1 0 9.2506 117.1401)" class="st14 st15"> hr</text>
	<text transform="matrix(0 -1 1 0 5.2807 107.7993)" class="st19 st16">−</text>
	<text transform="matrix(0 -1 1 0 5.2807 104.5093)" class="st14 st16">1</text>
	<text transform="matrix(0 -1 1 0 9.2508 101.1694)" class="st14 st15">)</text>
</g>
</svg>
